<svg width="122" height="30" viewBox="0 0 122 30" fill="none" xmlns="http://www.w3.org/2000/svg">
<path d="M35.2545 5.89009C33.7372 5.41163 32.0742 5.14795 30.3288 5.14795C28.5833 5.14795 26.9179 5.41163 25.4006 5.89009C20.737 7.35736 17.4548 10.8448 17.4548 14.9106C17.4548 19.3932 21.4362 23.172 26.8645 24.3181C27.9642 24.552 29.1295 24.6775 30.3288 24.6775C31.528 24.6775 32.6909 24.552 33.7906 24.3181C39.2189 23.172 43.2002 19.3932 43.2002 14.9106C43.2002 10.8448 39.9205 7.35736 35.2545 5.89009ZM30.3288 20.2395C25.5899 20.2395 20.6521 18.1492 20.6521 14.9106C20.6521 11.672 25.5875 9.5859 30.3288 9.5859C35.07 9.5859 40.003 11.6762 40.003 14.9106C40.003 18.145 35.0676 20.2395 30.3288 20.2395Z" fill="#2D2A26"/>
<path d="M69.7057 5.89008H52.2241L51.0078 10.2834H58.3394V18.6808C58.3394 21.7919 61.2186 24.3181 64.7751 24.3181H68.6254L69.9023 19.71H64.661C63.202 19.71 62.0197 18.6766 62.0197 17.3964V10.2834H69.7057C69.9776 10.2834 70.1985 10.0899 70.1985 9.8517V6.32388C70.1985 6.08146 69.98 5.89008 69.7057 5.89008Z" fill="#2D2A26"/>
<path d="M6.43332 5.89007C2.87679 5.89007 0 8.41632 0 11.5274V24.3181H3.67792V12.8117C3.67792 11.5316 4.86019 10.496 6.32165 10.496H16.8432L18.1201 5.88794H6.43332V5.89007Z" fill="#2D2A26"/>
<path d="M88.6559 5.89009C87.1386 5.41376 85.4781 5.14795 83.7326 5.14795C81.9871 5.14795 80.3241 5.41376 78.8068 5.89009C74.1409 7.35736 70.8611 10.8448 70.8611 14.9149C70.8611 16.0398 71.1136 17.1285 71.5797 18.1386C73.3324 21.9471 78.1101 24.6775 83.7326 24.6775C90.8408 24.6775 96.6016 20.3055 96.6016 14.9149C96.6016 10.8448 93.3243 7.35736 88.6559 5.89009ZM83.7326 20.2395C78.9938 20.2395 74.0559 18.1492 74.0559 14.9149C74.0559 11.6805 78.9913 9.5859 83.7326 9.5859C88.4738 9.5859 93.4068 11.6762 93.4068 14.9149C93.4068 18.1535 88.4714 20.2395 83.7326 20.2395Z" fill="#2D2A26"/>
<path d="M117.642 13.5624C118.16 12.8628 118.463 12.0313 118.463 11.1361V10.7512C118.463 8.06546 115.979 5.89008 112.913 5.89008H96.5605L97.7574 10.2068H99.6777V18.9488C99.6777 21.9152 102.423 24.3202 105.81 24.3202H115.768C119.208 24.3202 122 21.8769 122 18.8616V18.4767C122 16.1099 120.15 14.1238 117.65 13.5624H117.642ZM114.484 10.2068C115.508 10.2068 116.334 10.9468 116.31 11.8442C116.285 12.7118 115.477 13.405 114.484 13.405H103.115V10.2089H114.484V10.2068ZM119.444 17.6665C119.444 18.802 118.395 19.7249 117.096 19.7271L105.162 19.7547C104.03 19.7568 103.113 18.9551 103.113 17.9642V15.6059H117.089C118.388 15.6059 119.441 16.5267 119.441 17.6644L119.444 17.6665Z" fill="#2D2A26"/>
</svg>
