<svg width="48" height="48" viewBox="0 0 48 48" fill="none" xmlns="http://www.w3.org/2000/svg">
<g clip-path="url(#clip0_8388_37)">
<path d="M24 48C37.2548 48 48 37.2548 48 24C48 10.7452 37.2548 0 24 0C10.7452 0 0 10.7452 0 24C0 37.2548 10.7452 48 24 48Z" fill="url(#paint0_linear_8388_37)"/>
<path fill-rule="evenodd" clip-rule="evenodd" d="M12.1499 23.3946C18.5923 20.6427 22.8883 18.8285 25.0378 17.952C31.175 15.4493 32.4503 15.0145 33.2815 15.0002C33.4643 14.997 33.8731 15.0414 34.1379 15.2521C34.3614 15.4299 34.4229 15.6702 34.4524 15.8388C34.4818 16.0074 34.5185 16.3916 34.4893 16.6918C34.1568 20.1178 32.7177 28.4318 31.9856 32.269C31.6758 33.8927 31.0658 34.4371 30.4753 34.4903C29.1919 34.6061 28.2174 33.6588 26.9744 32.86C25.0294 31.6099 23.9305 30.8318 22.0425 29.612C19.8606 28.2023 21.2751 27.4275 22.5185 26.1613C22.844 25.8299 28.4985 20.7874 28.6079 20.33C28.6216 20.2728 28.6343 20.0596 28.5051 19.947C28.3759 19.8343 28.1851 19.8729 28.0475 19.9035C27.8524 19.9469 24.7452 21.9604 18.7258 25.9441C17.8439 26.5379 17.045 26.8272 16.3292 26.812C15.5402 26.7953 14.0223 26.3746 12.894 26.015C11.51 25.5739 10.41 25.3407 10.5058 24.5917C10.5557 24.2015 11.1037 23.8025 12.1499 23.3946Z" fill="white"/>
</g>
<defs>
<linearGradient id="paint0_linear_8388_37" x1="24" y1="0" x2="24" y2="47.644" gradientUnits="userSpaceOnUse">
<stop stop-color="#2AABEE"/>
<stop offset="1" stop-color="#229ED9"/>
</linearGradient>
<clipPath id="clip0_8388_37">
<rect width="48" height="48" fill="white"/>
</clipPath>
</defs>
</svg>
