<svg width="48" height="48" viewBox="0 0 48 48" fill="none" xmlns="http://www.w3.org/2000/svg">
<path d="M23.015 48H25.0137C35.8636 48 41.2896 48 44.6592 44.6304C48.0288 41.2608 48 35.8369 48 25.0137V22.9863C48 12.1651 48 6.73922 44.6592 3.36961C41.3184 9.65595e-06 35.8636 0 25.0137 0H23.015C12.1632 0 6.7392 9.65595e-06 3.36959 3.36961C-2.14577e-06 6.73922 0 12.1613 0 22.9863V25.0137C0 35.8369 -2.14577e-06 41.2608 3.36959 44.6304C6.7392 48 12.1632 48 23.015 48Z" fill="#0077FF"/>
<path d="M25.7584 34.6075C14.9354 34.6075 8.36707 27.0984 8.11169 14.6203H13.5933C13.7642 23.7864 17.9344 27.6763 21.1312 28.4692V14.6203H26.3863V22.5288C29.4698 22.187 32.6955 18.5889 33.782 14.6203H38.9488C38.1213 19.5029 34.6096 23.1009 32.1252 24.5852C34.6096 25.7852 38.6071 28.9263 40.1488 34.6075H34.4676C33.2676 30.8097 30.3262 27.8683 26.3863 27.4689V34.6075H25.7584Z" fill="white"/>
</svg>
