<svg width="48" height="48" viewBox="0 0 48 48" fill="none" xmlns="http://www.w3.org/2000/svg">
<path d="M0 48L3.28416 35.674C1.2576 32.066 0.192728 27.976 0.194675 23.782C0.200515 10.67 10.5864 0 23.3473 0C29.5399 0.002 35.3529 2.48 39.7253 6.976C44.0958 11.472 46.5019 17.448 46.5 23.804C46.4942 36.918 36.1083 47.588 23.3473 47.588C19.4733 47.586 15.6557 46.588 12.2742 44.692L0 48ZM12.8427 40.386C16.1054 42.376 19.2202 43.568 23.3395 43.57C33.9454 43.57 42.5851 34.702 42.5909 23.8C42.5948 12.876 33.996 4.02 23.3551 4.016C12.7415 4.016 4.10764 12.884 4.10374 23.784C4.1018 28.234 5.37108 31.566 7.50276 35.052L5.55796 42.348L12.8427 40.386ZM35.0103 29.458C34.8662 29.21 34.4808 29.062 33.9007 28.764C33.3225 28.466 30.4783 27.028 29.9468 26.83C29.4173 26.632 29.0318 26.532 28.6444 27.128C28.259 27.722 27.1493 29.062 26.8125 29.458C26.4758 29.854 26.137 29.904 25.5588 29.606C24.9807 29.308 23.1157 28.682 20.9061 26.656C19.1871 25.08 18.0249 23.134 17.6881 22.538C17.3514 21.944 17.6531 21.622 17.9412 21.326C18.2021 21.06 18.5194 20.632 18.8095 20.284C19.1034 19.94 19.1988 19.692 19.3935 19.294C19.5862 18.898 19.4908 18.55 19.3448 18.252C19.1988 17.956 18.0424 15.03 17.5616 13.84C17.0905 12.682 16.6135 12.838 16.2592 12.82L15.1496 12.8C14.7641 12.8 14.1373 12.948 13.6078 13.544C13.0782 14.14 11.5831 15.576 11.5831 18.502C11.5831 21.428 13.6564 24.254 13.9445 24.65C14.2346 25.046 18.023 31.05 23.8262 33.624C25.2065 34.236 26.285 34.602 27.124 34.876C28.5101 35.328 29.7716 35.264 30.7683 35.112C31.8799 34.942 34.1907 33.674 34.6735 32.286C35.1563 30.896 35.1563 29.706 35.0103 29.458Z" fill="#25D366"/>
</svg>
