<?xml version="1.0" encoding="UTF-8" standalone="no"?>
<svg
   width="24"
   height="24"
   viewBox="0 0 24 24"
   fill="none"
   version="1.1"
   id="svg1"
   sodipodi:docname="phone_1.svg"
   inkscape:version="1.3 (0e150ed, 2023-07-21)"
   xmlns:inkscape="http://www.inkscape.org/namespaces/inkscape"
   xmlns:sodipodi="http://sodipodi.sourceforge.net/DTD/sodipodi-0.dtd"
   xmlns="http://www.w3.org/2000/svg"
   xmlns:svg="http://www.w3.org/2000/svg">
  <defs
     id="defs1" />
  <sodipodi:namedview
     id="namedview1"
     pagecolor="#ffffff"
     bordercolor="#000000"
     borderopacity="0.25"
     inkscape:showpageshadow="2"
     inkscape:pageopacity="0.0"
     inkscape:pagecheckerboard="0"
     inkscape:deskcolor="#d1d1d1"
     inkscape:zoom="9.8333333"
     inkscape:cx="12"
     inkscape:cy="11.949153"
     inkscape:window-width="3440"
     inkscape:window-height="1314"
     inkscape:window-x="0"
     inkscape:window-y="25"
     inkscape:window-maximized="1"
     inkscape:current-layer="svg1" />
  <path
     style="color:#000000;fill:#2d2a26;stroke-linecap:round;stroke-linejoin:round;-inkscape-stroke:none"
     d="M 7.2207031,3 C 6.7830222,3 6.3441279,3.1019887 5.9433594,3.3046875 5.464602,3.5468386 5.1847934,3.8640347 4.6992187,4.3496094 L 4.5546875,4.4941406 C 4.0707631,4.978065 3.7433056,5.2942504 3.4785156,5.765625 3.1571548,6.3376836 2.998041,6.953234 3,7.609375 c 0.0015,0.5052809 0.111421,0.9061298 0.2578125,1.421875 0.8317659,2.930524 2.4048763,5.697866 4.7089844,8.001953 2.3040861,2.304086 5.0714771,3.877189 8.0019531,4.708984 0.515799,0.1464 0.916566,0.25634 1.421875,0.257813 0.655936,0.0019 1.271556,-0.158943 1.84375,-0.480469 v 0.002 c 0.471313,-0.264737 0.787536,-0.592223 1.271484,-1.076172 l 0.144532,-0.144531 c 0.485551,-0.485551 0.80273,-0.765266 1.044921,-1.24414 0.405404,-0.801535 0.405404,-1.7512 0,-2.552735 -0.242191,-0.478874 -0.55937,-0.758589 -1.044921,-1.24414 l -0.177735,-0.177735 a 1.0001,1.0001 0 0 0 0,-0.002 c -0.319463,-0.319363 -0.505771,-0.519661 -0.802734,-0.71289 a 1.0001,1.0001 0 0 0 0,-0.002 c -0.934958,-0.607869 -2.147074,-0.607869 -3.082031,0 a 1.0001,1.0001 0 0 0 0,0.002 c -0.296805,0.193126 -0.483261,0.393417 -0.802735,0.71289 a 1.0001,1.0001 0 0 0 0,0.002 c -0.06682,0.06689 -0.05264,0.05435 -0.05859,0.06055 -0.008,-0.0039 0.01385,0.0047 -0.04883,-0.02539 v 0.002 c -1.224605,-0.58794 -2.371172,-1.390704 -3.388671,-2.408203 -1.0175,-1.0175 -1.820219,-2.164015 -2.4082036,-3.3886724 -0.029746,-0.061955 -0.019497,-0.040664 -0.023437,-0.048828 0.00597,-0.00567 -0.00499,0.00889 0.0625,-0.058594 0.3194401,-0.3194397 0.5215591,-0.5054411 0.7148441,-0.8027344 0.607935,-0.9349735 0.607935,-2.1470578 0,-3.0820313 C 10.441502,5.0328453 10.239369,4.8467908 9.9199219,4.5273437 L 9.7402344,4.3496094 C 9.2546524,3.8640174 8.974833,3.5468294 8.4960938,3.3046875 8.0953252,3.1019887 7.6583841,3 7.2207031,3 Z m -0.375,2.0898437 c 0.235642,-0.1191818 0.512405,-0.1191818 0.7480469,0 0.04278,0.021638 0.2468448,0.1882411 0.7324219,0.6738282 l 0.1777344,0.1777343 c 0.3194323,0.3194324 0.4375285,0.4545288 0.453125,0.4785157 0.1797234,0.2764053 0.1797234,0.6259384 0,0.9023437 C 8.9414756,7.346192 8.8233459,7.4793884 8.5039063,7.7988281 8.3994789,7.9032555 8.3053049,7.994407 8.1992188,8.1425781 7.8409368,8.6429367 7.745722,9.2021218 7.9179687,9.7929688 7.9646095,9.9529812 8.0234201,10.07356 8.078125,10.1875 c 0.6838946,1.42442 1.6166237,2.761155 2.794922,3.939453 1.178298,1.178298 2.515061,2.111063 3.939453,2.794922 0.11358,0.0545 0.235782,0.11335 0.396484,0.160156 0.590208,0.171493 1.148876,0.07627 1.648438,-0.28125 0.147498,-0.105666 0.239012,-0.201802 0.34375,-0.30664 v 0.002 c 0.319326,-0.319326 0.452167,-0.437252 0.476562,-0.453125 0.276441,-0.17973 0.625903,-0.17973 0.902344,0 0.02424,0.01577 0.158979,0.133688 0.478516,0.453125 l 0.177734,0.177734 c 0.485648,0.485648 0.65222,0.689697 0.673828,0.732422 0.119196,0.235665 0.119196,0.512382 0,0.748047 -0.02161,0.04273 -0.18818,0.246774 -0.673828,0.732422 l -0.144531,0.144531 c -0.483851,0.483851 -0.651205,0.641232 -0.837891,0.746094 C 18.096101,19.866018 17.577748,20.00052 17.396484,20 17.147194,19.999273 17.031424,19.962806 16.515625,19.816406 13.902907,19.074804 11.440569,17.67885 9.3808594,15.619141 7.3211318,13.559432 5.9251663,11.097125 5.1835937,8.484375 5.0372055,7.9686413 5.0007402,7.852874 5,7.6035156 4.999459,7.4222975 5.1338975,6.9040944 5.2226562,6.7460937 5.3274459,6.559549 5.4848354,6.3921178 5.96875,5.9082031 L 6.1132812,5.7636719 C 6.5988656,5.2780875 6.8029411,5.1114724 6.8457031,5.0898437 Z"
     id="path1" />
</svg>
